<svg width="185" height="80" viewBox="0 0 185 80" fill="none" xmlns="http://www.w3.org/2000/svg">
<rect width="185" height="80" fill="#F7DF1E"/>
<path d="M29.272 62.576C37.208 62.576 42.648 58.352 42.648 49.072V18.48H33.688V48.944C33.688 53.424 31.832 54.576 28.888 54.576C25.816 54.576 24.536 52.464 23.128 49.968L15.832 54.384C17.944 58.864 22.104 62.576 29.272 62.576ZM60.638 62.576C69.15 62.576 75.486 58.16 75.486 50.096C75.486 42.608 71.198 39.28 63.582 36.016L61.342 35.056C57.502 33.392 55.838 32.304 55.838 29.616C55.838 27.44 57.502 25.776 60.126 25.776C62.686 25.776 64.35 26.864 65.886 29.616L72.862 25.136C69.918 19.952 65.822 17.968 60.126 17.968C52.126 17.968 47.006 23.088 47.006 29.808C47.006 37.104 51.294 40.56 57.758 43.312L59.998 44.272C64.094 46.064 66.526 47.152 66.526 50.224C66.526 52.784 64.158 54.64 60.446 54.64C56.03 54.64 53.534 52.336 51.614 49.2L44.318 53.424C46.942 58.608 52.318 62.576 60.638 62.576ZM88.997 62.576C96.933 62.576 102.373 58.352 102.373 49.072V18.48H93.413V48.944C93.413 53.424 91.557 54.576 88.613 54.576C85.541 54.576 84.261 52.464 82.853 49.968L75.557 54.384C77.669 58.864 81.829 62.576 88.997 62.576ZM107.819 62H137.515V54.128H116.779V47.856H134.251V40.176H116.779V26.352H136.619V18.48H107.819V62ZM155.475 62.576C163.987 62.576 170.323 58.16 170.323 50.096C170.323 42.608 166.035 39.28 158.419 36.016L156.179 35.056C152.339 33.392 150.675 32.304 150.675 29.616C150.675 27.44 152.339 25.776 154.963 25.776C157.523 25.776 159.187 26.864 160.723 29.616L167.699 25.136C164.755 19.952 160.659 17.968 154.963 17.968C146.963 17.968 141.843 23.088 141.843 29.808C141.843 37.104 146.131 40.56 152.595 43.312L154.835 44.272C158.931 46.064 161.363 47.152 161.363 50.224C161.363 52.784 158.995 54.64 155.283 54.64C150.867 54.64 148.371 52.336 146.451 49.2L139.155 53.424C141.779 58.608 147.155 62.576 155.475 62.576Z" fill="#2E2E2C"/>
<rect x="14" y="18.5" width="9" height="25" fill="#2E2E2C"/>
</svg>
